<?xml version="1.0" encoding="UTF-8" standalone="no"?>
<!-- Created with Inkscape (http://www.inkscape.org/) -->

<svg
   version="1.1"
   id="svg912"
   width="512"
   height="512"
   viewBox="0 0 512 512"
   xmlns:sodipodi="http://sodipodi.sourceforge.net/DTD/sodipodi-0.dtd"
   xmlns="http://www.w3.org/2000/svg"
   xmlns:svg="http://www.w3.org/2000/svg">
  <g
     id="g918">
    <path
       style="fill:#fff"
       d="M 95.387201,486.52714 C 76.733686,484.47838 61.925607,468.35576 42.672436,429.13278 26.155476,395.48407 13.151784,361.98635 9.6471439,344.0591 7.6698139,333.94452 8.8632539,207.29335 11.064614,193.63278 25.42396,104.52567 92.185694,46.022274 197.63785,30.138404 c 5.81869,-0.87645 9.63865,-1.92719 9.87882,-2.71733 1.8412,-6.05754 17.3903,-16.08189 30.13395,-19.4270602 22.72967,-5.966462 59.0702,4.6816802 63.48859,18.6028002 0.40624,1.27996 1.92925,2.07847 4.80314,2.51828 16.70164,2.55595 24.93941,4.1543 37.09151,7.19678 83.66535,20.94702 138.27547,73.210216 153.22607,146.641016 3.71446,18.2438 4.53919,38.75428 4.16897,103.67989 l -0.33357,58.5 -2.64709,8.17477 c -19.94666,61.59949 -47.67989,114.05742 -66.77865,126.31306 -16.2591,10.43343 -28.18346,9.82855 -63.51897,-3.2221 C 290.73629,448.17599 221.34453,448.07442 142.31236,476.0694 113.89,486.13724 106.60971,487.75973 95.387201,486.52714 Z m 18.839179,-22.78057 c 5.45833,-1.58741 17.79924,-5.6757 27.42424,-9.08508 53.88227,-19.08626 108.00785,-24.36649 163.99821,-15.99887 23.70234,3.54225 34.78405,6.66193 81.32051,22.89303 24.92623,8.69383 32.38821,6.17656 47.20036,-15.92287 9.44074,-14.0854 26.28805,-50.2585 37.37077,-80.23933 5.72747,-15.49386 5.72477,-15.47017 1.85931,-16.29782 -1.78704,-0.38263 -15.83276,-5.64794 -31.21271,-11.70068 -150.66271,-59.29296 -221.94853,-59.831 -367.036458,-2.77029 -19.25,7.57071 -36.45734,14.07927 -38.238532,14.46346 -5.281404,1.13917 -4.196514,5.83016 8.45171,36.54466 28.557672,69.34843 42.932822,85.65479 68.86259,78.11379 z M 66.906168,315.7545 c 148.307872,-58.39951 226.801442,-58.48858 375.187302,-0.42575 17.63143,6.89911 33.32416,12.91694 34.87273,13.37294 l 2.81557,0.82909 -0.37601,-64.199 c -0.35828,-61.17216 -0.47944,-64.72731 -2.56977,-75.40447 C 462.71941,117.82154 408.04303,69.192614 322.65062,52.795544 c -19.6383,-3.77096 -17.57664,-3.93173 -20.37415,1.58888 -15.35775,30.30706 -79.85992,30.37421 -95.20147,0.0991 -2.76842,-5.4632 -1.0721,-5.36797 -21.81513,-1.2246 C 94.845017,71.319094 38.882974,125.81421 30.668557,203.79792 c -1.334675,12.67076 -1.345816,125.83485 -0.01239,125.83485 0.553056,0 16.865556,-6.24523 36.25,-13.87828 z M 250.65062,230.57703 c -37.56986,-3.49466 -55.58167,-36.78582 -45.53974,-84.17094 8.55702,-40.37823 73.19551,-53.220846 97.68859,-19.40913 11.22419,15.49454 -10.17687,26.41125 -24.75246,12.62627 -13.86953,-13.11722 -33.77363,-10.97505 -40.49201,4.35794 -3.41466,7.79309 -3.45159,43.53265 -0.0528,51.11507 7.09913,15.8377 25.77923,18.00217 40.47868,4.69029 11.49309,-10.40823 27.66974,-7.70815 27.66974,4.61842 0,15.66963 -27.45499,28.73426 -55,26.17208 z M 267.96673,55.138654 c 14.95344,-3.89488 20.81071,-12.5915 13.43389,-19.94608 -14.04357,-14.00122 -56.75,-8.99452 -56.75,6.65311 0,10.74136 24.38358,18.22427 43.31611,13.29297 z"
       id="path1182" />
  </g>
</svg>
